<svg width="37" height="188" viewBox="0 0 37 188" fill="none" xmlns="http://www.w3.org/2000/svg">
<path d="M37 0.464478L0.464478 37L28.9645 65.5L0.464478 94L28.9645 122.5L0.464478 151L37 187.536V180.464L7.53554 151L36.0355 122.5L7.53555 94L36.0355 65.5L7.53555 37L37 7.53555V0.464478Z" fill="#8AC185"/>
<path d="M37 14.4645L14.4645 37L37 59.5356V52.4645L21.5355 37L37 21.5355V14.4645Z" fill="#8AC185"/>
<path d="M37 28.4645L28.4645 37L37 45.5356V38.4645L35.5355 37L37 35.5356V28.4645Z" fill="#8AC185"/>
<path d="M37 92.5356V85.4645L28.4645 94L37 102.536V95.4645L35.5355 94L37 92.5356Z" fill="#8AC185"/>
<path d="M37 149.536V142.464L28.4645 151L37 159.536V152.464L35.5355 151L37 149.536Z" fill="#8AC185"/>
<path d="M37 166.464L21.5355 151L37 135.536V128.464L14.4645 151L37 173.536V166.464Z" fill="#8AC185"/>
<path d="M37 116.536V109.464L21.5355 94L37 78.5356V71.4645L14.4645 94L37 116.536Z" fill="#8AC185"/>
</svg>
